# xmcd
#
# Track frame offsets: 
#        150
#        15222
#        41020
#        59247
#        81852
#        99054
#        123357
#        144630
#        182035
#        205845
#
# Disc length: 3163 seconds
#
# Revision: 0
# Processed by: cddbd v1.5.2PL0 Copyright (c) Steve Scherf et al.
# Submitted via: ExactAudioCopy v0.99pb3
#
DISCID=810c590a
DTITLE=Gajan, Edwards and Kammien - Box O' Blues
DYEAR=1998
DGENRE=Blues
TTITLE0=So Sweet
TTITLE1=Got My Eyes On You
TTITLE2=I'm Your Man
TTITLE3=Once I Had The Blues
TTITLE4=Wave Crave
TTITLE5=Shady Lady
TTITLE6=Big Legged Woman
TTITLE7=Woman Blues
TTITLE8=Turn Yourself 'round
TTITLE9=One.....Plus More
EXTD=
EXTT0=
EXTT1=
EXTT2=
EXTT3=
EXTT4=
EXTT5=
EXTT6=
EXTT7=
EXTT8=
EXTT9=
PLAYORDER=
